<svg version="1" xmlns="http://www.w3.org/2000/svg" width="682.667" height="682.667" viewBox="0 0 512.000000 512.000000"><path d="M36.2 149.7l.3 4.8 11.5.5c6.3.3 12.5 1.1 13.6 1.8 1.2.6 2.7 2.6 3.3 4.3.8 2.2 1.1 26.4 1.1 79.6 0 82.4.1 80.3-5.2 86-2.6 2.8-9.3 5-18 5.9l-6.8.6v8.8h68v-8.8l-6.3-.7c-13.2-1.4-20.8-6.1-22.2-13.7-.3-1.8-.4-38.4-.3-81.2l.3-77.9 34.4 88.9c19 48.9 35.1 89.9 35.9 91.1 1.6 2.6 4.8 3 7.1.9.9-.8 17.6-42.7 37.1-93l35.5-91.5.3 82.8c.2 89.7.2 89.4-5 91.9-1.4.7-7.6 1.5-13.7 1.9l-11.1.6v8.7h84v-8.7l-11-.6c-11.9-.6-15.8-1.9-17.7-5.7-1.6-3.1-1.9-162.3-.3-166.4 1.4-3.9 4.7-5 17-5.6l11.5-.5v-9l-27.6-.3c-25.3-.2-27.7-.1-29.1 1.5-.8 1-15.6 38-32.7 82.3-17.2 44.3-31.6 80.8-31.9 81.2-.4.4-12.4-29.6-26.7-66.5-36.9-95.6-36.6-94.8-38.6-96.8-1.8-1.8-3.9-1.9-29.5-1.9H35.9l.3 4.7zM299 149.9v5.1h9.3c5 0 10.9.5 12.9 1 7.2 2.1 6.8-3.6 6.8 87 0 44.8-.3 82.5-.6 83.8-1 3.7-5.4 5.2-17.4 5.9l-11 .6v8.7h85v-9h-6.2c-10.8 0-18-1.6-20.5-4.5-2.3-2.6-2.3-2.7-2.3-40v-37.4l32.3-.3c36-.5 36.8-.6 52.2-8.6 8.3-4.3 21.1-16.5 24.5-23.2 7-13.7 6.5-29.9-1.3-42.8-5-8.4-16.1-18.3-25.8-23.1-15.8-7.7-13.4-7.5-79.1-7.9l-58.8-.3v5zm110.8 6.6c12.8 3 19.7 8.1 24.3 18 7.4 15.6 5.8 42-3.1 54.4-3.3 4.4-9.5 8.5-17.9 11.5-4.9 1.7-8.8 2-32.4 2.4l-26.8.4.3-42.7c.3-40.9.4-42.7 2.2-44.1 2.9-2 44.5-2 53.4.1z"/></svg>